<svg width="541" height="153" viewBox="0 0 541 153" fill="none" xmlns="http://www.w3.org/2000/svg">
<path d="M125 124.02V6.3C125 5.436 125.204 4.644 125.612 3.924C126.044 3.204 126.608 2.64 127.304 2.23199C128 1.82399 128.732 1.61999 129.5 1.61999H142.82C143.588 1.61999 144.32 1.82399 145.016 2.23199C145.712 2.64 146.264 3.204 146.672 3.924C147.104 4.644 147.32 5.436 147.32 6.3V106.2H174.32C175.664 106.2 176.72 106.584 177.488 107.352C178.256 108.12 178.64 109.176 178.64 110.52V124.02C178.64 125.244 178.244 126.276 177.452 127.116C176.684 127.932 175.64 128.34 174.32 128.34H129.32C128.552 128.34 127.832 128.148 127.16 127.764C126.512 127.356 125.984 126.828 125.576 126.18C125.192 125.508 125 124.788 125 124.02Z" fill="black" fill-opacity="0.8"/>
<path d="M190.857 123.84V7.38C190.857 6.012 191.301 4.86 192.189 3.924C193.077 2.988 194.193 2.52 195.537 2.52H208.857C209.625 2.52 210.358 2.736 211.054 3.16799C211.75 3.6 212.302 4.188 212.71 4.93199C213.142 5.676 213.357 6.492 213.357 7.38V123.84C213.357 124.728 213.142 125.544 212.71 126.288C212.302 127.032 211.75 127.62 211.054 128.052C210.358 128.484 209.625 128.7 208.857 128.7H195.537C194.193 128.7 193.077 128.232 192.189 127.296C191.301 126.36 190.857 125.208 190.857 123.84Z" fill="black" fill-opacity="0.8"/>
<path d="M296.461 151.56L252.181 125.46L246.601 122.04L245.341 121.14C241.213 117.852 237.985 113.808 235.657 109.008C233.353 104.208 232.201 99.012 232.201 93.42V34.2C232.201 30.12 232.897 26.196 234.289 22.428C235.681 18.636 237.661 15.216 240.229 12.168C242.797 9.09599 245.821 6.54 249.301 4.5C251.893 2.988 254.593 1.85999 257.401 1.116C260.233 0.371999 263.233 0 266.401 0H272.341C276.445 0 280.369 0.683999 284.113 2.052C287.857 3.42 291.253 5.37599 294.301 7.91999C297.373 10.44 299.953 13.44 302.041 16.92C305.161 22.248 306.721 28.008 306.721 34.2V93.42C306.769 97.596 306.085 101.628 304.669 105.516C303.277 109.404 301.273 112.932 298.657 116.1C296.065 119.268 293.053 121.908 289.621 124.02L306.721 134.28C307.681 134.712 308.461 135.408 309.061 136.368C309.661 137.328 309.961 138.312 309.961 139.32C309.961 139.488 309.913 139.752 309.817 140.112C309.721 140.472 309.649 140.748 309.601 140.94L303.481 151.02C302.953 152.1 301.813 152.64 300.061 152.64C298.933 152.64 297.733 152.28 296.461 151.56ZM269.101 107.28C271.693 107.28 274.057 106.608 276.193 105.264C278.329 103.92 280.021 102.12 281.269 99.864C282.517 97.584 283.141 95.136 283.141 92.52L282.961 33.84C282.961 31.296 282.337 28.968 281.089 26.856C279.865 24.744 278.173 23.076 276.013 21.852C273.877 20.604 271.513 19.98 268.921 19.98H268.381C265.765 20.028 263.341 20.676 261.109 21.924C258.877 23.148 257.101 24.816 255.781 26.928C254.461 29.016 253.801 31.32 253.801 33.84L254.161 92.52C254.161 95.112 254.821 97.548 256.141 99.828C257.461 102.084 259.225 103.896 261.433 105.264C263.641 106.608 266.017 107.28 268.561 107.28H269.101Z" fill="black" fill-opacity="0.8"/>
<path d="M331.151 111.06C327.911 105.66 326.291 99.78 326.291 93.42L326.111 10.44C326.111 8.328 326.411 6.684 327.011 5.508C327.635 4.332 328.523 3.51599 329.675 3.05999C330.851 2.57999 332.363 2.33999 334.211 2.33999H340.691C342.515 2.33999 343.739 2.36399 344.363 2.412C345.011 2.436 345.503 2.53199 345.839 2.69999C346.199 2.84399 346.643 3.144 347.171 3.6C347.795 4.056 348.251 4.824 348.539 5.90399C348.827 6.98399 348.971 8.436 348.971 10.26L349.151 92.34C349.151 94.98 349.787 97.44 351.059 99.72C352.355 101.976 354.095 103.776 356.279 105.12C358.463 106.44 360.827 107.1 363.371 107.1H366.251C368.843 107.1 371.219 106.44 373.379 105.12C375.563 103.776 377.291 101.976 378.563 99.72C379.835 97.464 380.471 95.004 380.471 92.34L380.651 10.26C380.651 8.172 380.951 6.552 381.551 5.39999C382.151 4.248 383.015 3.456 384.143 3.024C385.295 2.56799 386.771 2.33999 388.571 2.33999H395.591C397.679 2.33999 399.299 2.56799 400.451 3.024C401.627 3.456 402.491 4.248 403.043 5.39999C403.595 6.552 403.871 8.232 403.871 10.44L403.691 93.42C403.691 97.62 402.959 101.652 401.495 105.516C400.031 109.356 397.955 112.848 395.267 115.992C392.603 119.112 389.471 121.728 385.871 123.84C380.471 127.08 374.591 128.7 368.231 128.7H361.751C357.479 128.7 353.399 127.992 349.511 126.576C345.647 125.136 342.143 123.096 338.999 120.456C335.855 117.792 333.239 114.66 331.151 111.06Z" fill="black" fill-opacity="0.8"/>
<path d="M421.904 123.84V7.38C421.904 6.012 422.348 4.86 423.236 3.924C424.124 2.988 425.24 2.52 426.584 2.52H439.904C440.672 2.52 441.404 2.736 442.1 3.16799C442.796 3.6 443.348 4.188 443.756 4.93199C444.188 5.676 444.404 6.492 444.404 7.38V123.84C444.404 124.728 444.188 125.544 443.756 126.288C443.348 127.032 442.796 127.62 442.1 128.052C441.404 128.484 440.672 128.7 439.904 128.7H426.584C425.24 128.7 424.124 128.232 423.236 127.296C422.348 126.36 421.904 125.208 421.904 123.84Z" fill="black" fill-opacity="0.8"/>
<path d="M465.048 123.48V8.46C465.048 7.45199 465.3 6.50399 465.804 5.616C466.308 4.728 466.968 4.02 467.784 3.492C468.624 2.96399 469.512 2.69999 470.448 2.69999H506.628C510.66 2.69999 514.512 3.35999 518.184 4.68C521.88 6 525.216 7.896 528.192 10.368C531.168 12.816 533.64 15.72 535.608 19.08C538.488 24.288 539.928 29.928 539.928 36L540.108 93.6C540.108 97.656 539.46 101.592 538.164 105.408C536.868 109.224 535.02 112.716 532.62 115.884C530.22 119.052 527.376 121.704 524.088 123.84C519.048 127.08 513.528 128.7 507.528 128.7H487.368C487.296 128.772 487.2 128.82 487.08 128.844C486.96 128.868 486.816 128.88 486.648 128.88H469.908C469.02 128.88 468.204 128.64 467.46 128.16C466.716 127.68 466.128 127.032 465.696 126.216C465.264 125.4 465.048 124.488 465.048 123.48ZM502.128 107.1C504.768 107.1 507.252 106.404 509.58 105.012C511.908 103.62 513.768 101.76 515.16 99.432C516.552 97.104 517.248 94.62 517.248 91.98V37.08C517.248 34.656 516.636 32.412 515.412 30.348C514.188 28.284 512.544 26.64 510.48 25.416C508.416 24.192 506.172 23.58 503.748 23.58H488.628C487.908 23.58 487.272 23.844 486.72 24.372C486.192 24.876 485.928 25.452 485.928 26.1V105.66C485.928 106.116 486.048 106.476 486.288 106.74C486.552 106.98 486.912 107.1 487.368 107.1H502.128Z" fill="black" fill-opacity="0.8"/>
<path d="M80.8549 93.5174C82.5685 116.935 69.101 134.799 40.7942 135.923C18.7224 137.172 4.75607 123.056 0.391603 105.443C-2.22711 81.5829 8.86107 48.6265 16.6025 32.1146C20.4682 22.1211 27.9502 16 38.5033 16C48.2762 16 45.5328 29.1166 55.9522 48.0351C63.6936 64.5469 79.7713 78.7097 80.8549 93.5174Z" fill="url(#paint0_radial)"/>
<defs>
<radialGradient id="paint0_radial" cx="0" cy="0" r="1" gradientUnits="userSpaceOnUse" gradientTransform="translate(65.0958 123.25) rotate(-125.311) scale(68.3189 51.6801)">
<stop stop-color="#6AF2F0"/>
<stop offset="1" stop-color="#059DC0"/>
</radialGradient>
</defs>
</svg>
